# xmcd CD database file
#
# Track frame offsets:
#	150
#	22505
#	46267
#	61055
#
# Disc length: 1111 seconds
#
# Revision: 0
# Processed by: cddbd v1.5PL3 Copyright (c) Steve Scherf et al.
# Submitted via: CDex 1.51
#
DISCID=1f045504
DTITLE=Earth Harmony - World needs love
DYEAR=2002
DGENRE=JPop
TTITLE0=World needs love
TTITLE1=I'll be there (w-inds.)
TTITLE2=World needs love (hyper fantasista mix)
TTITLE3=World needs love (Instrumental)
EXTD=YEAR: 2002
EXTT0=
EXTT1=
EXTT2=
EXTT3=
PLAYORDER=
